<?xml version="1.0" encoding="UTF-8"?>
<svg width="64px" height="64px" viewBox="0 0 64 64" version="1.1" xmlns="http://www.w3.org/2000/svg" xmlns:xlink="http://www.w3.org/1999/xlink">
    <!-- Generator: Sketch 50.2 (55047) - http://www.bohemiancoding.com/sketch -->
    <title>Group 14</title>
    <desc>Created with Sketch.</desc>
    <defs></defs>
    <g id="Page-1" stroke="none" stroke-width="1" fill="none" fill-rule="evenodd">
        <g id="Artboard" transform="translate(-647.000000, -788.000000)" fill="#FF3B30" fill-rule="nonzero">
            <g id="makeup" transform="translate(647.000000, 788.000000)">
                <g id="Group-14">
                    <path d="M26.561737,32.439544 C26.2810686,32.1605161 25.8953372,32 25.4992495,32 C25.1045127,32 24.7174305,32.1605161 24.438263,32.439544 C24.1590955,32.7185719 24,33.1056106 24,33.5 C24,33.8943894 24.1590955,34.2814281 24.438263,34.560456 C24.7189314,34.8394839 25.1046628,35 25.4992495,35 C25.8954873,35 26.2810686,34.8394839 26.561737,34.560456 C26.8409045,34.2814281 27,33.8943894 27,33.5 C27,33.1056106 26.8409045,32.7184218 26.561737,32.439544 Z" id="Shape"></path>
                    <path d="M60.5015399,23.4945145 C59.4474185,22.4748378 58.2286728,21.6816031 56.9081774,21.1366918 C56.0509303,15.902518 53.6133138,11.150862 49.8487019,7.38499771 C40.0047361,-2.4616659 23.9876667,-2.4616659 14.1438259,7.38499771 C11.0257117,10.5040456 8.79059447,14.3586862 7.63947347,18.5828111 C6.92797594,18.555428 6.21272842,18.7339809 5.57310564,19.1170942 C4.43123461,19.8009216 3.74961198,21.0039025 3.74961198,22.3351714 L3.74961198,32.2040916 C2.86786504,32.5908311 2.24974219,33.4712166 2.24974219,34.4942693 L2.24974219,40.0079008 C0.988371567,40.1339381 0,41.201504 0,42.495887 L0,60.2491401 C0,62.3172521 1.68199416,63.999875 3.74961198,63.999875 L15.248322,63.999875 C17.3158149,63.999875 18.997934,62.3173771 18.997934,60.2491401 L18.997934,46.9011905 C21.8442991,48.6178234 24.9726633,49.738405 28.2469019,50.2226733 L28.2469019,56.490653 L27.643154,56.490653 C24.193041,56.490653 21.3860507,59.2984838 21.3860507,62.74963 C21.3860507,63.4400843 21.9456738,63.999875 22.6359214,63.999875 L41.3569814,63.999875 C42.047229,63.999875 42.606852,63.4400843 42.606852,62.74963 C42.606852,59.2984838 39.7998618,56.490653 36.3497488,56.490653 L35.7463759,56.490653 L35.7463759,50.2217981 C39.2367387,49.7055203 42.5528522,48.4696546 45.5339669,46.5675918 L45.5339669,59.0602883 C45.5339669,61.7840943 47.7492092,64 50.4721997,64 L54.1593119,64 C56.8823024,64 59.0975448,61.7840943 59.0975448,59.0602883 L59.0975448,44.3350562 L62.8134068,36.7920742 C65.0205242,32.3111233 64.0916524,26.9672921 60.5015399,23.4945145 Z M6.2493533,22.3352965 C6.2493533,21.6957322 6.67447682,21.3721365 6.85710118,21.2626041 C7.03985055,21.1530717 7.52572386,20.931006 8.08934691,21.2332204 L12.088833,23.3768547 C12.4957066,23.5949192 12.7483307,24.0171691 12.7483307,24.4788057 L12.7483307,31.9937794 L6.2493533,31.9937794 L6.2493533,22.3352965 Z M4.7496085,34.4945194 L14.2485755,34.4945194 L14.2485755,39.9955221 L4.7496085,39.9955221 L4.7496085,34.4945194 Z M16.4981927,60.2492652 C16.4981927,60.9385941 15.9375696,61.4995101 15.248322,61.4995101 L3.74961198,61.4995101 C3.06048937,61.4995101 2.49974132,60.9387192 2.49974132,60.2492652 L2.49974132,42.496012 L16.4981927,42.496012 L16.4980677,60.2492652 L16.4981927,60.2492652 Z M36.3498738,58.9911429 C37.9837431,58.9911429 39.3773632,60.0397032 39.8934864,61.4995101 L24.0995413,61.4995101 C24.6156645,60.0397032 26.0092847,58.9911429 27.643279,58.9911429 L29.4967726,58.9911429 L34.4962552,58.9911429 L36.3498738,58.9911429 Z M30.7466432,56.490653 L30.7466432,50.4663704 C31.1588918,50.4862513 31.5725153,50.4972546 31.9878889,50.4972546 C32.1020135,50.4972546 32.2165131,50.4965043 32.3307627,50.4950039 C32.6370117,50.4910027 32.9420106,50.4807497 33.2463845,50.4659953 L33.2463845,56.490653 L30.7466432,56.490653 Z M18.997809,43.9194332 L18.997809,42.495887 C18.997934,41.201504 18.0095625,40.1339381 16.7481918,40.0080258 L16.7481918,34.4943943 C16.7481918,33.4713416 16.130194,32.5909561 15.248322,32.2042167 L15.248322,24.4789308 C15.248322,23.0937709 14.4901997,21.8270211 13.2697039,21.1729525 L10.0032153,19.4223095 C11.0248367,15.5466627 13.0572047,12.0084908 15.9115697,9.15327094 C24.7807889,0.281395765 39.2121138,0.281520802 48.081208,9.15327094 C51.1968222,12.2698181 53.3043149,16.1349618 54.2255617,20.3977232 C53.6721886,20.3163241 53.1095655,20.2743116 52.5411925,20.2743116 C51.8973198,20.2743116 51.261447,20.3307033 50.6376991,20.4348591 C49.6288276,16.5203258 47.3820854,12.9800283 44.2405964,10.3865109 C40.8058583,7.55104684 36.4574984,5.98945977 31.9967639,5.98945977 C28.6124006,5.98945977 25.2836622,6.8807235 22.3701723,8.56709749 C19.5446821,10.2024564 17.1631904,12.5469001 15.4826962,15.3473538 C15.1274475,15.9392789 15.3191968,16.7073812 15.9111947,17.0627363 C16.5029427,17.4178414 17.27069,17.2262847 17.6260638,16.6341095 C20.6861782,11.5344755 26.0585345,8.48969959 31.9968889,8.48969959 C33.5992583,8.48969959 35.1596279,8.72001774 36.6429977,9.15127035 L27.4191548,18.3777504 C26.9310315,18.8660199 26.9310315,19.6576292 27.4191548,20.1457736 C27.6632789,20.3899709 27.9830278,20.512007 28.3029017,20.512007 C28.6227756,20.512007 28.9426495,20.3898458 29.1866486,20.1457736 L39.2003639,10.1291847 C40.7932333,10.8921605 42.2544782,11.9007089 43.5295988,13.1101918 L27.4699046,29.1748203 C26.9817813,29.6630898 26.9817813,30.454699 27.4699046,30.9429685 C27.7140287,31.1871657 28.0337776,31.3092018 28.3536515,31.3092018 C28.6735254,31.3092018 28.9933993,31.1871657 29.2373985,30.9429685 L45.212843,14.96274 C46.6077131,16.7477681 47.6527095,18.8288839 48.2314575,21.1119345 C46.8885872,21.6573459 45.6500915,22.4600834 44.5804702,23.4947646 L44.4387207,23.6319302 C40.9439828,27.0124304 39.9646112,32.2504804 42.0016041,36.6659119 L42.6827268,38.1424738 C39.6823622,40.6327107 35.9163753,41.995989 31.9962639,41.995989 C28.7626501,41.995989 25.624661,41.0728409 22.9216704,39.3261991 C22.3419224,38.9513381 21.5681751,39.1180125 21.1936764,39.6980591 C20.8190527,40.2779807 20.9855521,41.0519597 21.5654251,41.4265706 C24.6734143,43.4347898 28.2804018,44.4963539 31.9963889,44.4963539 C36.279624,44.4963539 40.4021097,43.0793096 43.761598,40.4804156 L45.2613428,43.7311275 C37.5193697,49.2966493 26.8314068,49.3859257 18.997809,43.9194332 Z M56.5974284,59.0602883 C56.5974284,60.4053113 55.5035572,61.4995101 54.1589369,61.4995101 L50.4718247,61.4995101 C49.1272044,61.4995101 48.0333332,60.4053113 48.0333332,59.0602883 L48.0333332,51.2303465 L56.5973034,51.2303465 L56.5973034,59.0602883 L56.5974284,59.0602883 Z M56.5974284,48.7299816 L48.0334582,48.7299816 L48.0334582,45.2712082 L56.5974284,45.2712082 L56.5974284,48.7299816 Z M60.5706646,35.6868722 L57.0809268,42.7708433 L56.439679,42.7708433 L56.439679,37.636324 C56.439679,36.9458697 55.8800559,36.3860791 55.1898083,36.3860791 C54.4995607,36.3860791 53.9399377,36.9458697 53.9399377,37.636324 L53.9399377,42.7708433 L47.5713348,42.7708433 L44.2714712,35.6181018 C42.6789768,32.1664555 43.4447241,28.071994 46.1767146,25.4290869 L46.3184641,25.2919213 C49.807702,21.9165476 55.274558,21.9164225 58.7640459,25.2919213 C61.5702862,28.0065996 62.2964086,32.1839607 60.5706646,35.6868722 Z" id="Shape"></path>
                    <path d="M56.560456,32.439544 C56.2814281,32.1605161 55.8943894,32 55.5,32 C55.1054605,32 54.7185719,32.1605161 54.439544,32.439544 C54.1605161,32.7185719 54,33.1056106 54,33.5 C54,33.8943894 54.1605161,34.2814281 54.439544,34.560456 C54.7185719,34.8394839 55.1056106,35 55.5,35 C55.8945395,35 56.2814281,34.8394839 56.560456,34.560456 C56.8394839,34.2814281 57,33.8943894 57,33.5 C57,33.1056106 56.8394839,32.7184218 56.560456,32.439544 Z" id="Shape"></path>
                </g>
            </g>
        </g>
    </g>
</svg>